<svg xmlns="http://www.w3.org/2000/svg" viewBox="0 0 507.43 173.08">
  <title>Asset 1</title>
  <g id="Layer_2" data-name="Layer 2">
    <g id="Checkbox">
      <g>
        <path d="M162.55,82.52h26.16v3.72A24.6,24.6,0,0,1,204.43,81c19.2,0,29.76,13.92,29.76,33.6s-10.56,33.36-29.76,33.36c-5.88,0-11.88-2.52-14.52-4.8v25.2H162.55Zm35.52,43.92c5.4,0,8.76-5,8.76-11.88,0-7.44-3.36-11.88-8.76-11.88-5.88,0-8.88,5.28-8.88,11.88C189.19,122,192.67,126.44,198.07,126.44Z" style="fill: #c0ac7e"/>
        <path d="M238.75,59.72h27.36v86.64H238.75Z" style="fill: #c0ac7e"/>
        <path d="M295.39,107.24a29.93,29.93,0,0,1,11,2.16v-2.16c0-2.76-3-4.56-8.28-4.56a37.67,37.67,0,0,0-15.84,4l-8.88-17.52A56.32,56.32,0,0,1,303,80.84c22.92,0,30.24,12.72,30.24,27.72v37.8h-23.4l-1.2-4.2c-3.72,3.6-9,5.76-15.48,5.76-12.12,0-22.44-6.24-22.44-20.76C270.67,114.2,281.71,107.24,295.39,107.24Zm7,22c2.64,0,5.16-1.44,5.16-4s-2.4-4-5.28-4-5.28,1.56-5.28,4S299.47,129.2,302.35,129.2Z" style="fill: #c0ac7e"/>
        <path d="M338.83,59.72h27.36v86.64H338.83Z" style="fill: #c0ac7e"/>
        <path d="M371,67.52C371,59.84,376.75,54,385.87,54s14.88,5.88,14.88,13.56S395,81,385.87,81,371,75.08,371,67.52Zm1.2,15h27.36v63.84H372.19Z" style="fill: #c0ac7e"/>
        <path d="M415.15,121.52c4,2.88,11.88,6.12,15.84,6.12,1.92,0,2.64-.72,2.64-1.32,0-1.2-1.2-1.56-4.08-2.4-9.6-3-23.4-7.2-23.4-22,0-12.72,11.88-21.12,27.36-21.12,12.84,0,20.76,5.4,25.56,10.08l-13,14.64c-3-2.64-7.68-4.8-11.16-4.8-1.92,0-2.64.84-2.64,1.56,0,1.44,1.68,1.92,6.12,3.24C447,108.08,460,112.28,460,126c0,14.4-11.64,22-28,22A42.38,42.38,0,0,1,404.23,137Z" style="fill: #c0ac7e"/>
        <path d="M470.47,69.2h26.64V82.52h9.95v19.92h-9.95v18.84c0,3.36,3.23,4.2,6,4.2a26.15,26.15,0,0,0,4.33-.36v21a43.51,43.51,0,0,1-10.56,1.2c-17.4,0-27.12-8.16-27.12-25.32V102.44H464V82.52h6.48Z" style="fill: #c0ac7e"/>
      </g>
      <polygon points="44.26 133.09 93.03 63.84 99.04 75.75 131.03 0 99.04 43.52 94.22 29.5 62.66 77.88 63.98 30.55 40.53 47.71 42.56 94.16 0 128.63 51.32 173.08 99.04 128.48 74.1 112.95 79.54 127.04 51.27 151.78 25.76 129.46 43.43 114.06 44.26 133.09" style="fill: #c0ac7e"/>
    </g>
  </g>
</svg>
