<?xml version="1.0" encoding="utf-8"?>
<!-- Generator: Adobe Illustrator 22.0.0, SVG Export Plug-In . SVG Version: 6.00 Build 0)  -->
<!DOCTYPE svg PUBLIC "-//W3C//DTD SVG 1.1//EN" "http://www.w3.org/Graphics/SVG/1.1/DTD/svg11.dtd">
<svg version="1.1"
	 id="Layer_1" xmlns:cc="http://creativecommons.org/ns#" xmlns:dc="http://purl.org/dc/elements/1.1/" xmlns:inkscape="http://www.inkscape.org/namespaces/inkscape" xmlns:rdf="http://www.w3.org/1999/02/22-rdf-syntax-ns#" xmlns:sodipodi="http://sodipodi.sourceforge.net/DTD/sodipodi-0.dtd" xmlns:svg="http://www.w3.org/2000/svg"
	 xmlns="http://www.w3.org/2000/svg" xmlns:xlink="http://www.w3.org/1999/xlink" x="0px" y="0px" viewBox="0 0 100 100"
	 style="enable-background:new 0 0 100 100;" xml:space="preserve">
<style type="text/css">
	.st0{fill:#CDB380;}
</style>
<g transform="translate(0,-952.36218)">
	<path class="st0" d="M50,957.4c-24.9,0-45,20.1-45,45s20.1,45,45,45s45-20.1,45-45S74.9,957.4,50,957.4z M75.2,979.8
		c1.2,0,2.4,0.4,3.2,1.3c2,2,1.6,5.4-0.7,7.8l-33.9,33.9c-0.1,0.1-0.3,0.3-0.4,0.4c-0.1,0.1-0.2,0.2-0.3,0.3c-2,2-5.1,2-7.1,0
		l-14.1-14.1c-2-2-2-5.1,0-7.1s5.1-2,7.1,0l10.6,10.6l31.1-31.1C71.9,980.4,73.6,979.8,75.2,979.8z"/>
</g>
</svg>
