<?xml version="1.0" encoding="utf-8"?>
<!-- Generator: Adobe Illustrator 22.0.0, SVG Export Plug-In . SVG Version: 6.00 Build 0)  -->
<!DOCTYPE svg PUBLIC "-//W3C//DTD SVG 1.1//EN" "http://www.w3.org/Graphics/SVG/1.1/DTD/svg11.dtd">
<svg version="1.1" id="Layer_1" xmlns="http://www.w3.org/2000/svg" xmlns:xlink="http://www.w3.org/1999/xlink" x="0px" y="0px"
	 viewBox="0 0 100 100" style="enable-background:new 0 0 100 100;" xml:space="preserve">
<style type="text/css">
	.st0{fill:#CDB380;}
</style>
<g>
	<path class="st0" d="M67.7,38l-7.1,7.1l8.5,8.5c2.1,2.1,3.2,4.8,3.2,7.8c0,3-1.1,5.7-3.2,7.8s-4.8,3.2-7.8,3.2
		c-2.9,0-5.7-1.1-7.8-3.2L45,60.6l-7,7.1l8.5,8.5c4,4,9.2,6.2,14.8,6.2s10.9-2.2,14.8-6.2c4-4,6.2-9.2,6.2-14.8s-2.2-10.9-6.2-14.8
		L67.7,38z"/>
	<path class="st0" d="M30.9,46.5c-2.1-2.1-3.2-4.8-3.2-7.8s1.1-5.7,3.2-7.8s4.8-3.2,7.8-3.2c2.9,0,5.7,1.1,7.8,3.2l8.5,8.5l7.1-7.1
		l-8.5-8.5c-4-4-9.2-6.2-14.8-6.2S27.9,19.8,24,23.8c-4,4-6.2,9.2-6.2,14.8S20,49.5,24,53.4l8.5,8.5l7.1-7.1L30.9,46.5z"/>
	<rect x="45" y="36" transform="matrix(0.7071 -0.7071 0.7071 0.7071 -20.709 49.9987)" class="st0" width="10" height="28"/>
</g>
</svg>
