<?xml version="1.0" encoding="utf-8"?>
<!-- Generator: Adobe Illustrator 22.0.0, SVG Export Plug-In . SVG Version: 6.00 Build 0)  -->
<!DOCTYPE svg PUBLIC "-//W3C//DTD SVG 1.1//EN" "http://www.w3.org/Graphics/SVG/1.1/DTD/svg11.dtd">
<svg version="1.1" xmlns="http://www.w3.org/2000/svg" xmlns:xlink="http://www.w3.org/1999/xlink" x="0px" y="0px"
	 viewBox="0 0 100 100" style="enable-background:new 0 0 100 100;" xml:space="preserve">
<style type="text/css">
	.st0{fill:#036564;}
</style>
<g id="Layer_2">
</g>
<g id="Layer_1">
	<g>
		<path class="st0" d="M23.8,64.1L11.7,76.2l0,0v16.7c0,0.5,0.4,0.9,0.9,0.9h11.9c0.5,0,0.9-0.4,0.9-0.9V64.7
			C25.3,64,24.4,63.6,23.8,64.1z"/>
		<path class="st0" d="M35.6,53.6c-0.3-0.3-0.9-0.3-1.2,0l-1.3,1.3c-0.2,0.2-0.3,0.4-0.3,0.6v37.4c0,0.5,0.4,0.9,0.9,0.9h11.9
			c0.5,0,0.9-0.4,0.9-0.9V64.7c0-0.2-0.1-0.4-0.3-0.6L35.6,53.6z"/>
		<path class="st0" d="M66.1,57.9L54.2,69.8c-0.2,0.2-0.3,0.4-0.3,0.6v22.5c0,0.5,0.4,0.9,0.9,0.9h11.9c0.5,0,0.9-0.4,0.9-0.9V58.5
			C67.5,57.8,66.6,57.4,66.1,57.9z"/>
		<path class="st0" d="M87.2,36.8L75.3,48.7c-0.2,0.2-0.3,0.4-0.3,0.6v43.6c0,0.5,0.4,0.9,0.9,0.9h11.9c0.5,0,0.9-0.4,0.9-0.9V37.4
			C88.7,36.7,87.7,36.3,87.2,36.8z"/>
		<path class="st0" d="M96.6,6.2H72.2c-0.8,0-1.1,0.9-0.6,1.5l7.4,7.4L53.6,40.5c-0.3,0.3-0.9,0.3-1.2,0L35.6,23.7
			c-0.3-0.3-0.9-0.3-1.2,0L2.7,55.4c-0.3,0.3-0.3,0.9,0,1.2l8.4,8.4c0.3,0.3,0.9,0.3,1.2,0l22.1-22.1c0.3-0.3,0.9-0.3,1.2,0
			l16.8,16.8c0.3,0.3,0.9,0.3,1.2,0l35-35l7.4,7.4c0.5,0.5,1.5,0.2,1.5-0.6V7.1C97.5,6.6,97.1,6.2,96.6,6.2z"/>
	</g>
</g>
</svg>
