<?xml version="1.0" encoding="utf-8"?>
<!-- Generator: Adobe Illustrator 22.0.0, SVG Export Plug-In . SVG Version: 6.00 Build 0)  -->
<!DOCTYPE svg PUBLIC "-//W3C//DTD SVG 1.1//EN" "http://www.w3.org/Graphics/SVG/1.1/DTD/svg11.dtd">
<svg version="1.1" xmlns="http://www.w3.org/2000/svg" xmlns:xlink="http://www.w3.org/1999/xlink" x="0px" y="0px"
	 viewBox="0 0 100 100" style="enable-background:new 0 0 100 100;" xml:space="preserve">
<style type="text/css">
	.st0{fill:#036564;}
</style>
<g id="Layer_2">
</g>
<g id="Layer_1">
	<g>
		<g>
			<path class="st0" d="M50,51.7c12.2,0,22.1-9.9,22.1-22.1S62.2,7.5,50,7.5s-22.1,9.9-22.1,22.1S37.8,51.7,50,51.7z"/>
		</g>
		<g>
			<path class="st0" d="M87.9,69.3c-0.6-1.4-1.4-2.8-2.2-4.1c-4.4-6.5-11.3-10.9-19-12c-1-0.1-2,0.1-2.8,0.7
				c-4,2.9-8.8,4.5-13.8,4.5s-9.8-1.6-13.8-4.5c-0.8-0.6-1.8-0.8-2.8-0.7c-7.7,1.1-14.6,5.4-19,12c-0.9,1.3-1.6,2.7-2.2,4.1
				c-0.3,0.6-0.2,1.3,0.1,1.8c0.8,1.3,1.7,2.7,2.6,3.9c1.3,1.8,2.8,3.5,4.4,5c1.4,1.4,2.9,2.6,4.5,3.8c7.6,5.7,16.7,8.7,26.2,8.7
				s18.6-3,26.2-8.7c1.6-1.2,3.1-2.5,4.5-3.8c1.6-1.5,3.1-3.2,4.4-5c0.9-1.2,1.8-2.5,2.6-3.9C88.1,70.5,88.1,69.9,87.9,69.3z"/>
		</g>
	</g>
</g>
</svg>
